<svg width="133" height="92" viewBox="0 0 133 92" fill="none" xmlns="http://www.w3.org/2000/svg">
<path d="M34.5709 31.6187H29.9089V36.1349H34.5709V31.6187Z" fill="black"/>
<path d="M40.5426 31.6187H35.735V36.1349H40.5426V31.6187Z" fill="black"/>
<path d="M34.5709 36.8685H29.9089V41.5304H34.5709V36.8685Z" fill="black"/>
<path d="M40.5426 36.8685H35.735V41.5304H40.5426V36.8685Z" fill="black"/>
<path d="M90.3663 29.7266H85.7043V34.3886H90.3663V29.7266Z" fill="black"/>
<path d="M96.1959 29.7266H91.5339V34.3886H96.1959V29.7266Z" fill="black"/>
<path d="M63.7083 16.9077H59.0464V21.5697H63.7083V16.9077Z" fill="black"/>
<path d="M69.5342 16.9077H64.7266V21.5697H69.5342V16.9077Z" fill="black"/>
<path d="M63.7083 22.1504H59.0464V26.8124H63.7083V22.1504Z" fill="black"/>
<path d="M69.5342 22.1504H64.7266V26.8124H69.5342V22.1504Z" fill="black"/>
<path fill-rule="evenodd" clip-rule="evenodd" d="M43.0696 20.1903L63.9985 0.880859L84.2892 19.8023L90.8036 13.8489L121.106 41.675H121.049C123.418 43.6858 125.364 46.2727 126.788 49.5382C128.698 54.9079 129.539 60.5994 129.264 66.2921C129.104 59.9015 126.435 53.8308 121.834 49.3925C104.591 34.0339 66.994 43.1126 38.209 50.0634C22.4877 53.8596 9.39505 57.0211 3.68277 55.2199C-10.131 50.8642 18.4716 27.4796 30.9184 17.3035C33.0425 15.5669 34.6961 14.215 35.588 13.408L43.0696 20.1903ZM63.9985 8.01951L80.5193 23.2475L63.5493 38.756L46.9944 23.7483L63.9985 8.01951ZM107.286 36.0878L90.8036 20.9875L68.6627 41.1415C82.1814 37.4146 96.1495 34.5818 107.286 36.0878ZM35.588 20.5466L60.3547 43.4193C50.5937 46.4787 -0.979188 55.2199 13.5894 40.6513L35.588 20.5466Z" fill="#1371E2"/>
<path d="M10.728 81.292L6.312 74.38H3.936V81.292H1.752V64.372H7.32C9.24 64.372 10.68 64.836 11.64 65.764C12.6 66.676 13.08 67.892 13.08 69.412C13.08 70.788 12.696 71.9 11.928 72.748C11.16 73.58 10.048 74.1 8.592 74.308L13.2 81.292H10.728ZM3.936 72.796H7.128C9.608 72.796 10.848 71.708 10.848 69.532C10.848 67.356 9.608 66.268 7.128 66.268H3.936V72.796ZM27.8642 73.972C27.8642 74.436 27.8322 74.836 27.7682 75.172H17.2322C17.2802 76.676 17.7042 77.804 18.5042 78.556C19.3202 79.308 20.3122 79.684 21.4802 79.684C22.5362 79.684 23.4162 79.42 24.1202 78.892C24.8402 78.348 25.2802 77.628 25.4402 76.732H27.7682C27.6082 77.644 27.2482 78.46 26.6882 79.18C26.1442 79.9 25.4322 80.46 24.5522 80.86C23.6722 81.26 22.6802 81.46 21.5762 81.46C20.3122 81.46 19.1922 81.188 18.2162 80.644C17.2402 80.1 16.4722 79.324 15.9122 78.316C15.3682 77.292 15.0962 76.092 15.0962 74.716C15.0962 73.34 15.3682 72.14 15.9122 71.116C16.4722 70.092 17.2402 69.308 18.2162 68.764C19.1922 68.22 20.3122 67.948 21.5762 67.948C22.8562 67.948 23.9682 68.22 24.9122 68.764C25.8722 69.308 26.6002 70.036 27.0962 70.948C27.6082 71.86 27.8642 72.868 27.8642 73.972ZM25.6562 74.116C25.7042 73.14 25.5442 72.324 25.1762 71.668C24.8082 71.012 24.3042 70.524 23.6642 70.204C23.0242 69.884 22.3282 69.724 21.5762 69.724C20.3762 69.724 19.3682 70.1 18.5522 70.852C17.7362 71.588 17.2962 72.676 17.2322 74.116H25.6562ZM36.1208 67.948C37.4008 67.948 38.4808 68.268 39.3608 68.908C40.2568 69.548 40.8808 70.404 41.2328 71.476V68.116H43.4168V81.292H41.2328V77.932C40.8808 79.004 40.2568 79.86 39.3608 80.5C38.4808 81.14 37.4008 81.46 36.1208 81.46C34.9528 81.46 33.9128 81.188 33.0008 80.644C32.0888 80.1 31.3688 79.324 30.8408 78.316C30.3288 77.292 30.0728 76.092 30.0728 74.716C30.0728 73.34 30.3288 72.14 30.8408 71.116C31.3688 70.092 32.0888 69.308 33.0008 68.764C33.9128 68.22 34.9528 67.948 36.1208 67.948ZM36.7448 69.892C35.4008 69.892 34.3208 70.324 33.5048 71.188C32.7048 72.036 32.3048 73.212 32.3048 74.716C32.3048 76.22 32.7048 77.404 33.5048 78.268C34.3208 79.116 35.4008 79.54 36.7448 79.54C37.6088 79.54 38.3768 79.34 39.0488 78.94C39.7368 78.54 40.2728 77.98 40.6568 77.26C41.0408 76.524 41.2328 75.676 41.2328 74.716C41.2328 73.756 41.0408 72.908 40.6568 72.172C40.2728 71.436 39.7368 70.876 39.0488 70.492C38.3768 70.092 37.6088 69.892 36.7448 69.892ZM49.0766 63.532V81.292H46.8926V63.532H49.0766Z" fill="black"/>
<path d="M61.1606 67.588V71.14H66.8966V74.236H61.1606V78.004H67.6166V81.292H57.0566V64.324H67.6166V67.588H61.1606ZM74.8193 67.732C76.5153 67.732 77.8673 68.156 78.8753 69.004C79.8993 69.852 80.5393 70.972 80.7953 72.364H76.9553C76.8433 71.82 76.5873 71.396 76.1873 71.092C75.8033 70.772 75.3153 70.612 74.7233 70.612C74.2593 70.612 73.9073 70.716 73.6673 70.924C73.4273 71.116 73.3073 71.396 73.3073 71.764C73.3073 72.18 73.5233 72.492 73.9553 72.7C74.4033 72.908 75.0993 73.116 76.0433 73.324C77.0673 73.564 77.9073 73.812 78.5633 74.068C79.2193 74.308 79.7873 74.708 80.2673 75.268C80.7473 75.828 80.9873 76.58 80.9873 77.524C80.9873 78.292 80.7793 78.972 80.3633 79.564C79.9473 80.156 79.3473 80.62 78.5633 80.956C77.7793 81.292 76.8513 81.46 75.7793 81.46C73.9713 81.46 72.5233 81.06 71.4353 80.26C70.3473 79.46 69.6833 78.316 69.4433 76.828H73.4033C73.4673 77.404 73.7073 77.844 74.1233 78.148C74.5553 78.452 75.1073 78.604 75.7793 78.604C76.2433 78.604 76.5953 78.5 76.8353 78.292C77.0753 78.068 77.1953 77.78 77.1953 77.428C77.1953 76.964 76.9713 76.636 76.5233 76.444C76.0913 76.236 75.3793 76.02 74.3873 75.796C73.3953 75.588 72.5793 75.364 71.9393 75.124C71.2993 74.884 70.7473 74.5 70.2833 73.972C69.8193 73.428 69.5873 72.692 69.5873 71.764C69.5873 70.564 70.0433 69.596 70.9553 68.86C71.8673 68.108 73.1553 67.732 74.8193 67.732ZM90.8438 77.764V81.292H88.9958C87.4278 81.292 86.2038 80.908 85.3238 80.14C84.4598 79.356 84.0278 78.068 84.0278 76.276V71.356H82.2278V67.9H84.0278V64.612H88.1318V67.9H90.8198V71.356H88.1318V76.348C88.1318 76.876 88.2358 77.244 88.4438 77.452C88.6678 77.66 89.0358 77.764 89.5478 77.764H90.8438ZM98.2384 67.732C99.2624 67.732 100.142 67.964 100.878 68.428C101.614 68.892 102.158 69.524 102.51 70.324V67.9H106.59V81.292H102.51V78.868C102.158 79.668 101.614 80.3 100.878 80.764C100.142 81.228 99.2624 81.46 98.2384 81.46C97.1344 81.46 96.1424 81.188 95.2624 80.644C94.3984 80.084 93.7104 79.284 93.1984 78.244C92.7024 77.204 92.4544 75.988 92.4544 74.596C92.4544 73.188 92.7024 71.972 93.1984 70.948C93.7104 69.908 94.3984 69.116 95.2624 68.572C96.1424 68.012 97.1344 67.732 98.2384 67.732ZM99.5584 71.332C98.6784 71.332 97.9664 71.62 97.4224 72.196C96.8944 72.772 96.6304 73.572 96.6304 74.596C96.6304 75.62 96.8944 76.42 97.4224 76.996C97.9664 77.572 98.6784 77.86 99.5584 77.86C100.422 77.86 101.126 77.564 101.67 76.972C102.23 76.38 102.51 75.588 102.51 74.596C102.51 73.588 102.23 72.796 101.67 72.22C101.126 71.628 100.422 71.332 99.5584 71.332ZM117 77.764V81.292H115.152C113.584 81.292 112.36 80.908 111.48 80.14C110.616 79.356 110.184 78.068 110.184 76.276V71.356H108.384V67.9H110.184V64.612H114.288V67.9H116.976V71.356H114.288V76.348C114.288 76.876 114.392 77.244 114.6 77.452C114.824 77.66 115.192 77.764 115.704 77.764H117ZM132.027 74.236C132.027 74.572 131.987 74.94 131.907 75.34H122.619C122.667 76.348 122.923 77.076 123.387 77.524C123.851 77.956 124.443 78.172 125.163 78.172C125.771 78.172 126.275 78.02 126.675 77.716C127.075 77.412 127.339 77.02 127.467 76.54H131.811C131.635 77.484 131.251 78.332 130.659 79.084C130.067 79.82 129.315 80.404 128.403 80.836C127.491 81.252 126.475 81.46 125.355 81.46C124.043 81.46 122.875 81.188 121.851 80.644C120.843 80.084 120.051 79.284 119.475 78.244C118.899 77.204 118.611 75.988 118.611 74.596C118.611 73.188 118.891 71.972 119.451 70.948C120.027 69.908 120.827 69.116 121.851 68.572C122.875 68.012 124.043 67.732 125.355 67.732C126.683 67.732 127.851 68.004 128.859 68.548C129.867 69.092 130.643 69.86 131.187 70.852C131.747 71.828 132.027 72.956 132.027 74.236ZM127.875 73.612C127.891 72.732 127.651 72.076 127.155 71.644C126.675 71.196 126.075 70.972 125.355 70.972C124.603 70.972 123.979 71.196 123.483 71.644C122.987 72.092 122.707 72.748 122.643 73.612H127.875Z" fill="#1371E2"/>
</svg>
